<svg xmlns="http://www.w3.org/2000/svg" viewBox="0 0 300 240" width="300" height="240" role="img" aria-label="Leponeus — The Sprint">
  <title>Leponeus · The Sprint</title>
  <desc>AESDR canonical mascot. Pose 03 of 08: The Sprint. Use: Bursts of velocity. Onboarding and momentum moments.</desc>
  <g fill="none" stroke="#1A1A1A" stroke-width="1.6" stroke-linecap="round" stroke-linejoin="round" vector-effect="non-scaling-stroke">
    <ellipse cx="120" cy="160" rx="68" ry="36" fill="#F1ECE3"/>
    <path d="M 60 160 Q 120 110 180 160"/>
    <g stroke-opacity="0.45">
      <path d="M 108 133 L 114.1 136.5 L 114.1 143.5 L 108 147 L 101.9 143.5 L 101.9 136.5 Z"/>
      <path d="M 120 133 L 126.1 136.5 L 126.1 143.5 L 120 147 L 113.9 143.5 L 113.9 136.5 Z"/>
      <path d="M 132 133 L 138.1 136.5 L 138.1 143.5 L 132 147 L 125.9 143.5 L 125.9 136.5 Z"/>
      <path d="M 114 143.5 L 120.1 147 L 120.1 154 L 114 157.5 L 107.9 154 L 107.9 147 Z"/>
      <path d="M 126 143.5 L 132.1 147 L 132.1 154 L 126 157.5 L 119.9 154 L 119.9 147 Z"/>
    </g>
    <ellipse cx="68" cy="194" rx="10" ry="6" fill="#F1ECE3"/>
    <ellipse cx="172" cy="194" rx="10" ry="6" fill="#F1ECE3"/>
    <path d="M 63 199 l 0 2 M 68 200 l 0 2 M 73 199 l 0 2" stroke-opacity="0.5"/>
    <path d="M 167 199 l 0 2 M 172 200 l 0 2 M 177 199 l 0 2" stroke-opacity="0.5"/>
    <ellipse cx="200" cy="146" rx="16" ry="12" fill="#F1ECE3"/>
    <circle cx="215" cy="148" r="0.7" fill="#1A1A1A" stroke="none"/>
    <path d="M 205 140 q 3 -2.5 6 0 q -3 2.5 -6 0 Z" fill="#1A1A1A" stroke="none"/>
    <path d="M 188 128 Q 168 100 154 92 Q 178 102 196 122" fill="#F1ECE3"/>
    <path d="M 188 124 Q 174 104 162 96" stroke-opacity="0.4"/>
    <path d="M 210 130 Q 232 102 246 94 Q 222 104 216 122" fill="#F1ECE3"/>
    <path d="M 212 124 Q 226 104 238 98" stroke-opacity="0.4"/>
    <line x1="20" y1="146" x2="38" y2="146" stroke-opacity="0.5"/>
    <line x1="22" y1="160" x2="34" y2="160" stroke-opacity="0.4"/>
    <line x1="186" y1="134" x2="216" y2="134" stroke="#8B1A1A" stroke-width="1.4"/>
  </g>
</svg>
