

<svg xmlns="http://www.w3.org/2000/svg" style="display:none" aria-hidden="true">
  <symbol id="leponeus-doctrine" viewBox="0 0 300 240">
    <title>The Doctrine</title>
    <g fill="none" stroke="#1A1A1A" stroke-width="1.6" stroke-linecap="round" stroke-linejoin="round" vector-effect="non-scaling-stroke">
    <ellipse cx="120" cy="160" rx="68" ry="36" fill="#F1ECE3"></ellipse>
             <path d="M 60 160 Q 120 110 180 160"></path>
    <path d="M 80 158 L 80 132 M 100 156 L 100 124 M 120 156 L 120 122 M 140 156 L 140 124 M 160 158 L 160 132" stroke-opacity=".45"></path>
    <ellipse cx="68" cy="194" rx="10" ry="6" fill="#F1ECE3"></ellipse>
             <ellipse cx="172" cy="194" rx="10" ry="6" fill="#F1ECE3"></ellipse>
    <ellipse cx="200" cy="146" rx="16" ry="12" fill="#F1ECE3"></ellipse>
    <circle cx="208" cy="142" r="1.6" fill="#1A1A1A" stroke="none"></circle>
    
    <path d="M 192 130 Q 188 92 178 80 Q 192 86 200 122" fill="#F1ECE3"></path>
           <path d="M 208 130 Q 216 92 226 80 Q 218 92 216 122" fill="#F1ECE3"></path>
    
    
    <line x1="186" y1="134" x2="216" y2="134" stroke="#8B1A1A" stroke-width="1.4"></line>
  </g>
  </symbol>
  <symbol id="leponeus-diagnosis" viewBox="0 0 300 240">
    <title>The Diagnosis</title>
    <g fill="none" stroke="#1A1A1A" stroke-width="1.6" stroke-linecap="round" stroke-linejoin="round" vector-effect="non-scaling-stroke">
    <ellipse cx="120" cy="160" rx="68" ry="36" fill="#F1ECE3"></ellipse>
             <path d="M 60 160 Q 120 110 180 160"></path>
    <path d="M 80 158 L 80 132 M 120 156 L 120 122 M 160 158 L 160 132" stroke-opacity=".45"></path>
    <ellipse cx="68" cy="194" rx="10" ry="6" fill="#F1ECE3"></ellipse>
             <ellipse cx="172" cy="194" rx="10" ry="6" fill="#F1ECE3"></ellipse>
    <ellipse cx="200" cy="146" rx="16" ry="12" fill="#F1ECE3"></ellipse>
    <line x1="204" y1="142" x2="212" y2="142"></line>
    <line x1="200" y1="152" x2="208" y2="152"></line>
    <path d="M 192 130 Q 190 100 184 88 Q 196 96 200 122" fill="#F1ECE3"></path>
           <path d="M 208 130 Q 214 100 222 88 Q 218 100 216 122" fill="#F1ECE3"></path>
    
    
    <line x1="186" y1="134" x2="216" y2="134" stroke="#8B1A1A" stroke-width="1.4"></line>
  </g>
  </symbol>
  <symbol id="leponeus-sprint" viewBox="0 0 300 240">
    <title>The Sprint</title>
    <g fill="none" stroke="#1A1A1A" stroke-width="1.6" stroke-linecap="round" stroke-linejoin="round" vector-effect="non-scaling-stroke">
    <ellipse cx="120" cy="160" rx="68" ry="36" fill="#F1ECE3"></ellipse>
             <path d="M 60 160 Q 120 110 180 160"></path>
    <path d="M 80 158 L 80 132 M 100 156 L 100 124 M 120 156 L 120 122 M 140 156 L 140 124 M 160 158 L 160 132" stroke-opacity=".45"></path>
    <ellipse cx="68" cy="194" rx="10" ry="6" fill="#F1ECE3"></ellipse>
             <ellipse cx="172" cy="194" rx="10" ry="6" fill="#F1ECE3"></ellipse>
    <ellipse cx="200" cy="146" rx="16" ry="12" fill="#F1ECE3"></ellipse>
    <circle cx="208" cy="140" r="1.6" fill="#1A1A1A" stroke="none"></circle>
    
    <path d="M 188 128 Q 168 100 154 92 Q 178 102 196 122" fill="#F1ECE3"></path>
           <path d="M 210 130 Q 232 102 246 94 Q 222 104 216 122" fill="#F1ECE3"></path>
    
    <line x1="20" y1="146" x2="38" y2="146" stroke-opacity=".5"></line>
             <line x1="22" y1="160" x2="34" y2="160" stroke-opacity=".4"></line>
    <line x1="186" y1="134" x2="216" y2="134" stroke="#8B1A1A" stroke-width="1.4"></line>
  </g>
  </symbol>
  <symbol id="leponeus-fall" viewBox="0 0 300 240">
    <title>The Fall</title>
    <g fill="none" stroke="#1A1A1A" stroke-width="1.6" stroke-linecap="round" stroke-linejoin="round" vector-effect="non-scaling-stroke">
    <ellipse cx="120" cy="160" rx="68" ry="36" fill="#F1ECE3"></ellipse>
             <path d="M 60 160 Q 120 110 180 160"></path>
    <path d="M 100 152 L 96 132 L 110 138 L 102 122" stroke="#8B1A1A"></path>
    <ellipse cx="68" cy="194" rx="10" ry="6" fill="#F1ECE3"></ellipse>
             <ellipse cx="172" cy="194" rx="10" ry="6" fill="#F1ECE3"></ellipse>
    <ellipse cx="200" cy="146" rx="16" ry="12" fill="#F1ECE3"></ellipse>
    <path d="M 204 140 L 212 144 M 212 140 L 204 144"></path>
    <path d="M 200 154 q 4 -3 8 0"></path>
    <path d="M 192 132 Q 184 124 176 130 Q 186 130 198 124" fill="#F1ECE3"></path>
           <path d="M 210 130 Q 220 138 226 132 Q 218 130 216 124" fill="#F1ECE3"></path>
    
    
    <line x1="186" y1="134" x2="216" y2="134" stroke="#8B1A1A" stroke-width="1.4"></line>
  </g>
  </symbol>
  <symbol id="leponeus-recovery" viewBox="0 0 300 240">
    <title>The Recovery</title>
    <g fill="none" stroke="#1A1A1A" stroke-width="1.6" stroke-linecap="round" stroke-linejoin="round" vector-effect="non-scaling-stroke">
    <ellipse cx="120" cy="160" rx="68" ry="36" fill="#F1ECE3"></ellipse>
             <path d="M 60 160 Q 120 110 180 160"></path>
    <path d="M 80 158 L 80 132 M 120 156 L 120 122 M 160 158 L 160 132" stroke-opacity=".45"></path>
                 <path d="M 120 122 L 120 100"></path>
                 <path d="M 120 110 q -8 -4 -10 -12 q 8 4 10 8" fill="#8B1A1A" stroke="#8B1A1A"></path>
    <ellipse cx="68" cy="194" rx="10" ry="6" fill="#F1ECE3"></ellipse>
             <ellipse cx="172" cy="194" rx="10" ry="6" fill="#F1ECE3"></ellipse>
    <ellipse cx="200" cy="146" rx="16" ry="12" fill="#F1ECE3"></ellipse>
    <circle cx="208" cy="142" r="1.6" fill="#1A1A1A" stroke="none"></circle>
    
    <path d="M 192 130 Q 188 92 178 80 Q 192 86 200 122" fill="#F1ECE3"></path>
           <path d="M 208 130 Q 216 92 226 80 Q 218 92 216 122" fill="#F1ECE3"></path>
    
    
    <line x1="186" y1="134" x2="216" y2="134" stroke="#8B1A1A" stroke-width="1.4"></line>
  </g>
  </symbol>
  <symbol id="leponeus-rest" viewBox="0 0 300 240">
    <title>The Rest</title>
    <g fill="none" stroke="#1A1A1A" stroke-width="1.6" stroke-linecap="round" stroke-linejoin="round" vector-effect="non-scaling-stroke">
    <ellipse cx="120" cy="160" rx="68" ry="36" fill="#F1ECE3"></ellipse>
             <path d="M 60 160 Q 120 110 180 160"></path>
    <path d="M 80 158 L 80 132 M 100 156 L 100 124 M 120 156 L 120 122 M 140 156 L 140 124 M 160 158 L 160 132" stroke-opacity=".25"></path>
    <ellipse cx="68" cy="194" rx="10" ry="6" fill="#F1ECE3"></ellipse>
             <ellipse cx="172" cy="194" rx="10" ry="6" fill="#F1ECE3"></ellipse>
    <ellipse cx="200" cy="146" rx="16" ry="12" fill="#F1ECE3"></ellipse>
    <path d="M 204 142 q 4 0 8 0"></path>
    
    <path d="M 192 130 Q 196 110 200 102 Q 200 116 200 122" fill="#F1ECE3"></path>
           <path d="M 208 130 Q 212 110 216 102 Q 216 116 216 122" fill="#F1ECE3"></path>
    
    
    <line x1="186" y1="134" x2="216" y2="134" stroke="#8B1A1A" stroke-width="1.4"></line>
  </g>
  </symbol>
  <symbol id="leponeus-verdict" viewBox="0 0 300 240">
    <title>The Verdict</title>
    <g fill="none" stroke="#1A1A1A" stroke-width="1.6" stroke-linecap="round" stroke-linejoin="round" vector-effect="non-scaling-stroke">
    <ellipse cx="120" cy="160" rx="68" ry="36" fill="#F1ECE3"></ellipse>
             <path d="M 60 160 Q 120 110 180 160"></path>
    <path d="M 80 158 L 80 132 M 100 156 L 100 124 M 120 156 L 120 122 M 140 156 L 140 124 M 160 158 L 160 132" stroke-opacity=".45"></path>
    <ellipse cx="68" cy="194" rx="10" ry="6" fill="#F1ECE3"></ellipse>
             <ellipse cx="172" cy="194" rx="10" ry="6" fill="#F1ECE3"></ellipse>
    <ellipse cx="200" cy="146" rx="16" ry="12" fill="#F1ECE3"></ellipse>
    <circle cx="208" cy="142" r="1.6" fill="#1A1A1A" stroke="none"></circle>
    
    <path d="M 196 130 Q 196 96 192 84 Q 202 92 200 122" fill="#F1ECE3"></path>
           <path d="M 208 130 Q 208 96 212 84 Q 214 92 216 122" fill="#F1ECE3"></path>
           <path d="M 200 80 q 4 -2 4 0" fill="#8B1A1A" stroke="#8B1A1A"></path>
    
    
    <line x1="186" y1="134" x2="216" y2="134" stroke="#8B1A1A" stroke-width="1.4"></line>
  </g>
  </symbol>
  <symbol id="leponeus-owner" viewBox="0 0 300 240">
    <title>The Owner</title>
    <g fill="none" stroke="#1A1A1A" stroke-width="1.6" stroke-linecap="round" stroke-linejoin="round" vector-effect="non-scaling-stroke">
    <ellipse cx="120" cy="160" rx="68" ry="36" fill="#F1ECE3"></ellipse>
             <path d="M 60 160 Q 120 110 180 160"></path>
    <path d="M 80 158 L 80 132 M 100 156 L 100 124 M 120 156 L 120 122 M 140 156 L 140 124 M 160 158 L 160 132" stroke-opacity=".55"></path>
                 <text x="120" y="148" text-anchor="middle" font-family="Playfair Display, serif" font-style="italic" font-weight="900" font-size="22" fill="#8B1A1A" stroke="none">A</text>
    <ellipse cx="68" cy="194" rx="10" ry="6" fill="#F1ECE3"></ellipse>
             <ellipse cx="172" cy="194" rx="10" ry="6" fill="#F1ECE3"></ellipse>
    <ellipse cx="200" cy="146" rx="16" ry="12" fill="#F1ECE3"></ellipse>
    <circle cx="208" cy="142" r="1.6" fill="#1A1A1A" stroke="none"></circle>
    
    <path d="M 192 130 Q 188 92 178 80 Q 192 86 200 122" fill="#F1ECE3"></path>
           <path d="M 208 130 Q 216 92 226 80 Q 218 92 216 122" fill="#F1ECE3"></path>
    
    
    <line x1="186" y1="134" x2="216" y2="134" stroke="#8B1A1A" stroke-width="1.4"></line>
  </g>
  </symbol>
</svg>