<svg xmlns="http://www.w3.org/2000/svg" width="0" height="0" style="position:absolute" aria-hidden="true">
  <defs>
    <style>
      svg use { fill: none; stroke: #1A1A1A; stroke-width: 1.6; stroke-linecap: round; stroke-linejoin: round; vector-effect: non-scaling-stroke; }
    </style>
  </defs>
  <symbol id="leponeus-doctrine" viewBox="0 0 300 240">
    <title>Leponeus · The Doctrine</title>
    <ellipse cx="120" cy="160" rx="68" ry="36" fill="#F1ECE3"/>
    <path d="M 60 160 Q 120 110 180 160"/>
    <g stroke-opacity="0.45">
      <path d="M 108 133 L 114.1 136.5 L 114.1 143.5 L 108 147 L 101.9 143.5 L 101.9 136.5 Z"/>
      <path d="M 120 133 L 126.1 136.5 L 126.1 143.5 L 120 147 L 113.9 143.5 L 113.9 136.5 Z"/>
      <path d="M 132 133 L 138.1 136.5 L 138.1 143.5 L 132 147 L 125.9 143.5 L 125.9 136.5 Z"/>
      <path d="M 114 143.5 L 120.1 147 L 120.1 154 L 114 157.5 L 107.9 154 L 107.9 147 Z"/>
      <path d="M 126 143.5 L 132.1 147 L 132.1 154 L 126 157.5 L 119.9 154 L 119.9 147 Z"/>
    </g>
    <ellipse cx="68" cy="194" rx="10" ry="6" fill="#F1ECE3"/>
    <ellipse cx="172" cy="194" rx="10" ry="6" fill="#F1ECE3"/>
    <path d="M 63 199 l 0 2 M 68 200 l 0 2 M 73 199 l 0 2" stroke-opacity="0.5"/>
    <path d="M 167 199 l 0 2 M 172 200 l 0 2 M 177 199 l 0 2" stroke-opacity="0.5"/>
    <ellipse cx="200" cy="146" rx="16" ry="12" fill="#F1ECE3"/>
    <circle cx="215" cy="148" r="0.7" fill="#1A1A1A" stroke="none"/>
    <path d="M 205 142 q 3 -2.5 6 0 q -3 2.5 -6 0 Z" fill="#1A1A1A" stroke="none"/>
    <path d="M 188 148 q 6 5 14 4" stroke-opacity="0.3"/>
    <path d="M 192 130 Q 188 92 178 80 Q 192 86 200 122" fill="#F1ECE3"/>
    <path d="M 189 122 Q 186 100 182 88" stroke-opacity="0.4"/>
    <path d="M 208 130 Q 216 92 226 80 Q 218 92 216 122" fill="#F1ECE3"/>
    <path d="M 211 122 Q 214 100 218 88" stroke-opacity="0.4"/>
    <line x1="186" y1="134" x2="216" y2="134" stroke="#8B1A1A" stroke-width="1.4"/>
  </symbol>
  <symbol id="leponeus-diagnosis" viewBox="0 0 300 240">
    <title>Leponeus · The Diagnosis</title>
    <ellipse cx="120" cy="160" rx="68" ry="36" fill="#F1ECE3"/>
    <path d="M 60 160 Q 120 110 180 160"/>
    <g stroke-opacity="0.45">
      <path d="M 108 133 L 114.1 136.5 L 114.1 143.5 L 108 147 L 101.9 143.5 L 101.9 136.5 Z"/>
      <path d="M 120 133 L 126.1 136.5 L 126.1 143.5 L 120 147 L 113.9 143.5 L 113.9 136.5 Z"/>
      <path d="M 132 133 L 138.1 136.5 L 138.1 143.5 L 132 147 L 125.9 143.5 L 125.9 136.5 Z"/>
      <path d="M 114 143.5 L 120.1 147 L 120.1 154 L 114 157.5 L 107.9 154 L 107.9 147 Z"/>
      <path d="M 126 143.5 L 132.1 147 L 132.1 154 L 126 157.5 L 119.9 154 L 119.9 147 Z"/>
    </g>
    <ellipse cx="68" cy="194" rx="10" ry="6" fill="#F1ECE3"/>
    <ellipse cx="172" cy="194" rx="10" ry="6" fill="#F1ECE3"/>
    <path d="M 63 199 l 0 2 M 68 200 l 0 2 M 73 199 l 0 2" stroke-opacity="0.5"/>
    <path d="M 167 199 l 0 2 M 172 200 l 0 2 M 177 199 l 0 2" stroke-opacity="0.5"/>
    <ellipse cx="200" cy="146" rx="16" ry="12" fill="#F1ECE3"/>
    <circle cx="215" cy="148" r="0.7" fill="#1A1A1A" stroke="none"/>
    <line x1="204" y1="142" x2="212" y2="142"/>
    <line x1="200" y1="152" x2="208" y2="152"/>
    <path d="M 188 148 q 6 5 14 4" stroke-opacity="0.25"/>
    <path d="M 192 130 Q 190 100 184 88 Q 196 96 200 122" fill="#F1ECE3"/>
    <path d="M 192 124 Q 192 104 188 92" stroke-opacity="0.4"/>
    <path d="M 208 130 Q 214 100 222 88 Q 218 100 216 122" fill="#F1ECE3"/>
    <path d="M 211 124 Q 213 104 217 92" stroke-opacity="0.4"/>
    <line x1="186" y1="134" x2="216" y2="134" stroke="#8B1A1A" stroke-width="1.4"/>
  </symbol>
  <symbol id="leponeus-sprint" viewBox="0 0 300 240">
    <title>Leponeus · The Sprint</title>
    <ellipse cx="120" cy="160" rx="68" ry="36" fill="#F1ECE3"/>
    <path d="M 60 160 Q 120 110 180 160"/>
    <g stroke-opacity="0.45">
      <path d="M 108 133 L 114.1 136.5 L 114.1 143.5 L 108 147 L 101.9 143.5 L 101.9 136.5 Z"/>
      <path d="M 120 133 L 126.1 136.5 L 126.1 143.5 L 120 147 L 113.9 143.5 L 113.9 136.5 Z"/>
      <path d="M 132 133 L 138.1 136.5 L 138.1 143.5 L 132 147 L 125.9 143.5 L 125.9 136.5 Z"/>
      <path d="M 114 143.5 L 120.1 147 L 120.1 154 L 114 157.5 L 107.9 154 L 107.9 147 Z"/>
      <path d="M 126 143.5 L 132.1 147 L 132.1 154 L 126 157.5 L 119.9 154 L 119.9 147 Z"/>
    </g>
    <ellipse cx="68" cy="194" rx="10" ry="6" fill="#F1ECE3"/>
    <ellipse cx="172" cy="194" rx="10" ry="6" fill="#F1ECE3"/>
    <path d="M 63 199 l 0 2 M 68 200 l 0 2 M 73 199 l 0 2" stroke-opacity="0.5"/>
    <path d="M 167 199 l 0 2 M 172 200 l 0 2 M 177 199 l 0 2" stroke-opacity="0.5"/>
    <ellipse cx="200" cy="146" rx="16" ry="12" fill="#F1ECE3"/>
    <circle cx="215" cy="148" r="0.7" fill="#1A1A1A" stroke="none"/>
    <path d="M 205 140 q 3 -2.5 6 0 q -3 2.5 -6 0 Z" fill="#1A1A1A" stroke="none"/>
    <path d="M 188 128 Q 168 100 154 92 Q 178 102 196 122" fill="#F1ECE3"/>
    <path d="M 188 124 Q 174 104 162 96" stroke-opacity="0.4"/>
    <path d="M 210 130 Q 232 102 246 94 Q 222 104 216 122" fill="#F1ECE3"/>
    <path d="M 212 124 Q 226 104 238 98" stroke-opacity="0.4"/>
    <line x1="20" y1="146" x2="38" y2="146" stroke-opacity="0.5"/>
    <line x1="22" y1="160" x2="34" y2="160" stroke-opacity="0.4"/>
    <line x1="186" y1="134" x2="216" y2="134" stroke="#8B1A1A" stroke-width="1.4"/>
  </symbol>
  <symbol id="leponeus-fall" viewBox="0 0 300 240">
    <title>Leponeus · The Fall</title>
    <ellipse cx="120" cy="160" rx="68" ry="36" fill="#F1ECE3"/>
    <path d="M 60 160 Q 120 110 180 160"/>
    <g stroke-opacity="0.25">
      <path d="M 108 133 L 114.1 136.5 L 114.1 143.5 L 108 147 L 101.9 143.5 L 101.9 136.5 Z"/>
      <path d="M 132 133 L 138.1 136.5 L 138.1 143.5 L 132 147 L 125.9 143.5 L 125.9 136.5 Z"/>
      <path d="M 126 143.5 L 132.1 147 L 132.1 154 L 126 157.5 L 119.9 154 L 119.9 147 Z"/>
    </g>
    <path d="M 100 152 L 96 132 L 110 138 L 102 122" stroke="#8B1A1A"/>
    <ellipse cx="68" cy="194" rx="10" ry="6" fill="#F1ECE3"/>
    <ellipse cx="172" cy="194" rx="10" ry="6" fill="#F1ECE3"/>
    <path d="M 63 199 l 0 2 M 68 200 l 0 2 M 73 199 l 0 2" stroke-opacity="0.5"/>
    <path d="M 167 199 l 0 2 M 172 200 l 0 2 M 177 199 l 0 2" stroke-opacity="0.5"/>
    <ellipse cx="200" cy="146" rx="16" ry="12" fill="#F1ECE3"/>
    <circle cx="215" cy="148" r="0.7" fill="#1A1A1A" stroke="none"/>
    <path d="M 204 140 L 212 144 M 212 140 L 204 144"/>
    <path d="M 200 154 q 4 -3 8 0"/>
    <path d="M 192 132 Q 184 124 176 130 Q 186 130 198 124" fill="#F1ECE3"/>
    <path d="M 188 128 Q 184 126 180 128" stroke-opacity="0.3"/>
    <path d="M 210 130 Q 220 138 226 132 Q 218 130 216 124" fill="#F1ECE3"/>
    <path d="M 214 128 Q 218 126 222 128" stroke-opacity="0.3"/>
    <line x1="186" y1="134" x2="216" y2="134" stroke="#8B1A1A" stroke-width="1.4"/>
  </symbol>
  <symbol id="leponeus-recovery" viewBox="0 0 300 240">
    <title>Leponeus · The Recovery</title>
    <ellipse cx="120" cy="160" rx="68" ry="36" fill="#F1ECE3"/>
    <path d="M 60 160 Q 120 110 180 160"/>
    <g stroke-opacity="0.45">
      <path d="M 108 133 L 114.1 136.5 L 114.1 143.5 L 108 147 L 101.9 143.5 L 101.9 136.5 Z"/>
      <path d="M 132 133 L 138.1 136.5 L 138.1 143.5 L 132 147 L 125.9 143.5 L 125.9 136.5 Z"/>
      <path d="M 114 143.5 L 120.1 147 L 120.1 154 L 114 157.5 L 107.9 154 L 107.9 147 Z"/>
      <path d="M 126 143.5 L 132.1 147 L 132.1 154 L 126 157.5 L 119.9 154 L 119.9 147 Z"/>
    </g>
    <path d="M 120 133 Q 118 122 120 110"/>
    <path d="M 120 118 q -8 -4 -10 -12 q 8 4 10 8" fill="#8B1A1A" stroke="#8B1A1A"/>
    <path d="M 120 112 q 8 -4 10 -12 q -8 4 -10 8" fill="#8B1A1A" stroke="#8B1A1A"/>
    <ellipse cx="68" cy="194" rx="10" ry="6" fill="#F1ECE3"/>
    <ellipse cx="172" cy="194" rx="10" ry="6" fill="#F1ECE3"/>
    <path d="M 63 199 l 0 2 M 68 200 l 0 2 M 73 199 l 0 2" stroke-opacity="0.5"/>
    <path d="M 167 199 l 0 2 M 172 200 l 0 2 M 177 199 l 0 2" stroke-opacity="0.5"/>
    <ellipse cx="200" cy="146" rx="16" ry="12" fill="#F1ECE3"/>
    <circle cx="215" cy="148" r="0.7" fill="#1A1A1A" stroke="none"/>
    <path d="M 205 141 q 3 -2.5 6 0 q -3 2.5 -6 0 Z" fill="#1A1A1A" stroke="none"/>
    <path d="M 188 148 q 6 5 14 4" stroke-opacity="0.3"/>
    <path d="M 192 130 Q 188 92 178 80 Q 192 86 200 122" fill="#F1ECE3"/>
    <path d="M 189 122 Q 186 100 182 88" stroke-opacity="0.4"/>
    <path d="M 208 130 Q 216 92 226 80 Q 218 92 216 122" fill="#F1ECE3"/>
    <path d="M 211 122 Q 214 100 218 88" stroke-opacity="0.4"/>
    <line x1="186" y1="134" x2="216" y2="134" stroke="#8B1A1A" stroke-width="1.4"/>
  </symbol>
  <symbol id="leponeus-rest" viewBox="0 0 300 240">
    <title>Leponeus · The Rest</title>
    <ellipse cx="120" cy="160" rx="68" ry="36" fill="#F1ECE3"/>
    <path d="M 60 160 Q 120 110 180 160"/>
    <g stroke-opacity="0.25">
      <path d="M 108 133 L 114.1 136.5 L 114.1 143.5 L 108 147 L 101.9 143.5 L 101.9 136.5 Z"/>
      <path d="M 120 133 L 126.1 136.5 L 126.1 143.5 L 120 147 L 113.9 143.5 L 113.9 136.5 Z"/>
      <path d="M 132 133 L 138.1 136.5 L 138.1 143.5 L 132 147 L 125.9 143.5 L 125.9 136.5 Z"/>
      <path d="M 114 143.5 L 120.1 147 L 120.1 154 L 114 157.5 L 107.9 154 L 107.9 147 Z"/>
      <path d="M 126 143.5 L 132.1 147 L 132.1 154 L 126 157.5 L 119.9 154 L 119.9 147 Z"/>
    </g>
    <ellipse cx="68" cy="194" rx="10" ry="6" fill="#F1ECE3"/>
    <ellipse cx="172" cy="194" rx="10" ry="6" fill="#F1ECE3"/>
    <ellipse cx="200" cy="146" rx="16" ry="12" fill="#F1ECE3"/>
    <circle cx="215" cy="148" r="0.7" fill="#1A1A1A" stroke="none"/>
    <path d="M 204 142 q 4 0 8 0"/>
    <path d="M 192 130 Q 196 110 200 102 Q 200 116 200 122" fill="#F1ECE3"/>
    <path d="M 194 122 Q 196 114 198 108" stroke-opacity="0.4"/>
    <path d="M 208 130 Q 212 110 216 102 Q 216 116 216 122" fill="#F1ECE3"/>
    <path d="M 210 122 Q 212 114 214 108" stroke-opacity="0.4"/>
    <line x1="186" y1="134" x2="216" y2="134" stroke="#8B1A1A" stroke-width="1.4"/>
  </symbol>
  <symbol id="leponeus-verdict" viewBox="0 0 300 240">
    <title>Leponeus · The Verdict</title>
    <ellipse cx="120" cy="160" rx="68" ry="36" fill="#F1ECE3"/>
    <path d="M 60 160 Q 120 110 180 160"/>
    <g stroke-opacity="0.45">
      <path d="M 108 133 L 114.1 136.5 L 114.1 143.5 L 108 147 L 101.9 143.5 L 101.9 136.5 Z"/>
      <path d="M 120 133 L 126.1 136.5 L 126.1 143.5 L 120 147 L 113.9 143.5 L 113.9 136.5 Z"/>
      <path d="M 132 133 L 138.1 136.5 L 138.1 143.5 L 132 147 L 125.9 143.5 L 125.9 136.5 Z"/>
      <path d="M 114 143.5 L 120.1 147 L 120.1 154 L 114 157.5 L 107.9 154 L 107.9 147 Z"/>
      <path d="M 126 143.5 L 132.1 147 L 132.1 154 L 126 157.5 L 119.9 154 L 119.9 147 Z"/>
    </g>
    <ellipse cx="68" cy="194" rx="10" ry="6" fill="#F1ECE3"/>
    <ellipse cx="172" cy="194" rx="10" ry="6" fill="#F1ECE3"/>
    <path d="M 63 199 l 0 2 M 68 200 l 0 2 M 73 199 l 0 2" stroke-opacity="0.5"/>
    <path d="M 167 199 l 0 2 M 172 200 l 0 2 M 177 199 l 0 2" stroke-opacity="0.5"/>
    <ellipse cx="200" cy="146" rx="16" ry="12" fill="#F1ECE3"/>
    <circle cx="215" cy="148" r="0.7" fill="#1A1A1A" stroke="none"/>
    <path d="M 205 142 q 3 -2.5 6 0 q -3 2.5 -6 0 Z" fill="#1A1A1A" stroke="none"/>
    <path d="M 188 148 q 6 5 14 4" stroke-opacity="0.3"/>
    <path d="M 196 130 Q 196 96 192 84 Q 202 92 200 122" fill="#F1ECE3"/>
    <path d="M 196 122 Q 195 100 194 88" stroke-opacity="0.4"/>
    <path d="M 208 130 Q 208 96 212 84 Q 214 92 216 122" fill="#F1ECE3"/>
    <path d="M 209 122 Q 210 100 211 88" stroke-opacity="0.4"/>
    <path d="M 200 80 q 4 -2 4 0" fill="#8B1A1A" stroke="#8B1A1A"/>
    <line x1="186" y1="134" x2="216" y2="134" stroke="#8B1A1A" stroke-width="1.4"/>
  </symbol>
  <symbol id="leponeus-owner" viewBox="0 0 300 240">
    <title>Leponeus · The Owner</title>
    <ellipse cx="120" cy="160" rx="68" ry="36" fill="#F1ECE3"/>
    <path d="M 60 160 Q 120 110 180 160"/>
    <g stroke-opacity="0.55">
      <path d="M 108 133 L 114.1 136.5 L 114.1 143.5 L 108 147 L 101.9 143.5 L 101.9 136.5 Z"/>
      <path d="M 132 133 L 138.1 136.5 L 138.1 143.5 L 132 147 L 125.9 143.5 L 125.9 136.5 Z"/>
      <path d="M 114 143.5 L 120.1 147 L 120.1 154 L 114 157.5 L 107.9 154 L 107.9 147 Z"/>
      <path d="M 126 143.5 L 132.1 147 L 132.1 154 L 126 157.5 L 119.9 154 L 119.9 147 Z"/>
    </g>
    <text x="120" y="148" text-anchor="middle" font-family="Playfair Display, serif" font-style="italic" font-weight="900" font-size="22" fill="#8B1A1A" stroke="none">A</text>
    <ellipse cx="68" cy="194" rx="10" ry="6" fill="#F1ECE3"/>
    <ellipse cx="172" cy="194" rx="10" ry="6" fill="#F1ECE3"/>
    <path d="M 63 199 l 0 2 M 68 200 l 0 2 M 73 199 l 0 2" stroke-opacity="0.5"/>
    <path d="M 167 199 l 0 2 M 172 200 l 0 2 M 177 199 l 0 2" stroke-opacity="0.5"/>
    <ellipse cx="200" cy="146" rx="16" ry="12" fill="#F1ECE3"/>
    <circle cx="215" cy="148" r="0.7" fill="#1A1A1A" stroke="none"/>
    <path d="M 205 142 q 3 -2.5 6 0 q -3 2.5 -6 0 Z" fill="#1A1A1A" stroke="none"/>
    <path d="M 188 148 q 6 5 14 4" stroke-opacity="0.3"/>
    <path d="M 192 130 Q 188 92 178 80 Q 192 86 200 122" fill="#F1ECE3"/>
    <path d="M 189 122 Q 186 100 182 88" stroke-opacity="0.4"/>
    <path d="M 208 130 Q 216 92 226 80 Q 218 92 216 122" fill="#F1ECE3"/>
    <path d="M 211 122 Q 214 100 218 88" stroke-opacity="0.4"/>
    <line x1="186" y1="134" x2="216" y2="134" stroke="#8B1A1A" stroke-width="1.4"/>
  </symbol>
</svg>
