

<svg xmlns="http://www.w3.org/2000/svg" viewBox="0 0 300 240" width="300" height="240" role="img" aria-label="Leponeus — The Verdict">
  <title>Leponeus · The Verdict</title>
  <desc>AESDR canonical mascot. Pose 07 of 08: The Verdict. Use: Crimson tip. Pricing/closing/Rowan moments.</desc>
  <g fill="none" stroke="#1A1A1A" stroke-width="1.6" stroke-linecap="round" stroke-linejoin="round" vector-effect="non-scaling-stroke">
    <ellipse cx="120" cy="160" rx="68" ry="36" fill="#F1ECE3"></ellipse>
             <path d="M 60 160 Q 120 110 180 160"></path>
    <path d="M 80 158 L 80 132 M 100 156 L 100 124 M 120 156 L 120 122 M 140 156 L 140 124 M 160 158 L 160 132" stroke-opacity=".45"></path>
    <ellipse cx="68" cy="194" rx="10" ry="6" fill="#F1ECE3"></ellipse>
             <ellipse cx="172" cy="194" rx="10" ry="6" fill="#F1ECE3"></ellipse>
    <ellipse cx="200" cy="146" rx="16" ry="12" fill="#F1ECE3"></ellipse>
    <circle cx="208" cy="142" r="1.6" fill="#1A1A1A" stroke="none"></circle>
    
    <path d="M 196 130 Q 196 96 192 84 Q 202 92 200 122" fill="#F1ECE3"></path>
           <path d="M 208 130 Q 208 96 212 84 Q 214 92 216 122" fill="#F1ECE3"></path>
           <path d="M 200 80 q 4 -2 4 0" fill="#8B1A1A" stroke="#8B1A1A"></path>
    
    
    <line x1="186" y1="134" x2="216" y2="134" stroke="#8B1A1A" stroke-width="1.4"></line>
  </g>
</svg>