<svg xmlns="http://www.w3.org/2000/svg" viewBox="0 0 300 240" width="300" height="240" role="img" aria-label="Leponeus — The Diagnosis">
  <title>Leponeus · The Diagnosis</title>
  <desc>AESDR canonical mascot. Pose 02 of 08: The Diagnosis. Use: Lesson 01. Honest-look-in-the-mirror moments.</desc>
  <g fill="none" stroke="#1A1A1A" stroke-width="1.6" stroke-linecap="round" stroke-linejoin="round" vector-effect="non-scaling-stroke">
    <ellipse cx="120" cy="160" rx="68" ry="36" fill="#F1ECE3"/>
    <path d="M 60 160 Q 120 110 180 160"/>
    <g stroke-opacity="0.45">
      <path d="M 108 133 L 114.1 136.5 L 114.1 143.5 L 108 147 L 101.9 143.5 L 101.9 136.5 Z"/>
      <path d="M 120 133 L 126.1 136.5 L 126.1 143.5 L 120 147 L 113.9 143.5 L 113.9 136.5 Z"/>
      <path d="M 132 133 L 138.1 136.5 L 138.1 143.5 L 132 147 L 125.9 143.5 L 125.9 136.5 Z"/>
      <path d="M 114 143.5 L 120.1 147 L 120.1 154 L 114 157.5 L 107.9 154 L 107.9 147 Z"/>
      <path d="M 126 143.5 L 132.1 147 L 132.1 154 L 126 157.5 L 119.9 154 L 119.9 147 Z"/>
    </g>
    <ellipse cx="68" cy="194" rx="10" ry="6" fill="#F1ECE3"/>
    <ellipse cx="172" cy="194" rx="10" ry="6" fill="#F1ECE3"/>
    <path d="M 63 199 l 0 2 M 68 200 l 0 2 M 73 199 l 0 2" stroke-opacity="0.5"/>
    <path d="M 167 199 l 0 2 M 172 200 l 0 2 M 177 199 l 0 2" stroke-opacity="0.5"/>
    <ellipse cx="200" cy="146" rx="16" ry="12" fill="#F1ECE3"/>
    <circle cx="215" cy="148" r="0.7" fill="#1A1A1A" stroke="none"/>
    <line x1="204" y1="142" x2="212" y2="142"/>
    <line x1="200" y1="152" x2="208" y2="152"/>
    <path d="M 188 148 q 6 5 14 4" stroke-opacity="0.25"/>
    <path d="M 192 130 Q 190 100 184 88 Q 196 96 200 122" fill="#F1ECE3"/>
    <path d="M 192 124 Q 192 104 188 92" stroke-opacity="0.4"/>
    <path d="M 208 130 Q 214 100 222 88 Q 218 100 216 122" fill="#F1ECE3"/>
    <path d="M 211 124 Q 213 104 217 92" stroke-opacity="0.4"/>
    <line x1="186" y1="134" x2="216" y2="134" stroke="#8B1A1A" stroke-width="1.4"/>
  </g>
</svg>
