<svg xmlns="http://www.w3.org/2000/svg" viewBox="0 0 300 240" width="300" height="240" role="img" aria-label="Leponeus — The Rest">
  <title>Leponeus · The Rest</title>
  <desc>AESDR canonical mascot. Pose 06 of 08: The Rest. Use: Eyes closed. Sundays only. Permission to stop.</desc>
  <g fill="none" stroke="#1A1A1A" stroke-width="1.6" stroke-linecap="round" stroke-linejoin="round" vector-effect="non-scaling-stroke">
    <ellipse cx="120" cy="160" rx="68" ry="36" fill="#F1ECE3"/>
    <path d="M 60 160 Q 120 110 180 160"/>
    <g stroke-opacity="0.25">
      <path d="M 108 133 L 114.1 136.5 L 114.1 143.5 L 108 147 L 101.9 143.5 L 101.9 136.5 Z"/>
      <path d="M 120 133 L 126.1 136.5 L 126.1 143.5 L 120 147 L 113.9 143.5 L 113.9 136.5 Z"/>
      <path d="M 132 133 L 138.1 136.5 L 138.1 143.5 L 132 147 L 125.9 143.5 L 125.9 136.5 Z"/>
      <path d="M 114 143.5 L 120.1 147 L 120.1 154 L 114 157.5 L 107.9 154 L 107.9 147 Z"/>
      <path d="M 126 143.5 L 132.1 147 L 132.1 154 L 126 157.5 L 119.9 154 L 119.9 147 Z"/>
    </g>
    <ellipse cx="68" cy="194" rx="10" ry="6" fill="#F1ECE3"/>
    <ellipse cx="172" cy="194" rx="10" ry="6" fill="#F1ECE3"/>
    <ellipse cx="200" cy="146" rx="16" ry="12" fill="#F1ECE3"/>
    <circle cx="215" cy="148" r="0.7" fill="#1A1A1A" stroke="none"/>
    <path d="M 204 142 q 4 0 8 0"/>
    <path d="M 192 130 Q 196 110 200 102 Q 200 116 200 122" fill="#F1ECE3"/>
    <path d="M 194 122 Q 196 114 198 108" stroke-opacity="0.4"/>
    <path d="M 208 130 Q 212 110 216 102 Q 216 116 216 122" fill="#F1ECE3"/>
    <path d="M 210 122 Q 212 114 214 108" stroke-opacity="0.4"/>
    <line x1="186" y1="134" x2="216" y2="134" stroke="#8B1A1A" stroke-width="1.4"/>
  </g>
</svg>
