<svg xmlns="http://www.w3.org/2000/svg" width="109" height="21" viewBox="0 0 109 21" fill="none">
  <path d="M 0 0 L 0 -0.5 L -0.5 -0.5 L -0.5 0 L 0 0 Z M 109 0 L 109.5 0 L 109.5 -0.5 L 109 -0.5 L 109 0 Z M 109 21 L 109 21.5 L 109.5 21.5 L 109.5 21 L 109 21 Z M 0 21 L -0.5 21 L -0.5 21.5 L 0 21.5 L 0 21 Z M 0 0 L 0 0.5 L 109 0.5 L 109 0 L 109 -0.5 L 0 -0.5 L 0 0 Z M 109 0 L 108.5 0 L 108.5 21 L 109 21 L 109.5 21 L 109.5 0 L 109 0 Z M 109 21 L 109 20.5 L 0 20.5 L 0 21 L 0 21.5 L 109 21.5 L 109 21 Z M 0 21 L 0.5 21 L 0.5 0 L 0 0 L -0.5 0 L -0.5 21 L 0 21 Z" fill="currentColor" fill-rule="nonzero"></path>
</svg>