<svg xmlns="http://www.w3.org/2000/svg" width="17" height="17" viewBox="0 0 17 17" fill="none">
  <path d="M 17 8.5 L 16.5 8.5 C 16.5 12.918 12.918 16.5 8.5 16.5 L 8.5 17 L 8.5 17.5 C 13.471 17.5 17.5 13.471 17.5 8.5 L 17 8.5 Z M 8.5 17 L 8.5 16.5 C 4.082 16.5 0.5 12.918 0.5 8.5 L 0 8.5 L -0.5 8.5 C -0.5 13.471 3.529 17.5 8.5 17.5 L 8.5 17 Z M 0 8.5 L 0.5 8.5 C 0.5 4.082 4.082 0.5 8.5 0.5 L 8.5 0 L 8.5 -0.5 C 3.529 -0.5 -0.5 3.529 -0.5 8.5 L 0 8.5 Z M 8.5 0 L 8.5 0.5 C 12.918 0.5 16.5 4.082 16.5 8.5 L 17 8.5 L 17.5 8.5 C 17.5 3.529 13.471 -0.5 8.5 -0.5 L 8.5 0 Z" fill="currentColor" fill-rule="nonzero"></path>
</svg>